inDegrees=yes
name=ik_S51_A05_T03
DataType=double
version=3
OpenSimVersion=4.3-2021-08-27-4bc7ad9
endheader
time	pelvis_tilt	pelvis_list	pelvis_rotation	pelvis_tx	pelvis_ty	pelvis_tz	hip_flexion_r	hip_adduction_r	hip_rotation_r	knee_angle_r	knee_angle_r_beta	ankle_angle_r	subtalar_angle_r	mtp_angle_r	hip_flexion_l	hip_adduction_l	hip_rotation_l	knee_angle_l	knee_angle_l_beta	ankle_angle_l	subtalar_angle_l	mtp_angle_l	lumbar_extension	lumbar_bending	lumbar_rotation	arm_flex_r	arm_add_r	arm_rot_r	elbow_flex_r	pro_sup_r	wrist_flex_r	wrist_dev_r	arm_flex_l	arm_add_l	arm_rot_l	elbow_flex_l	pro_sup_l	wrist_flex_l	wrist_dev_l
22.8199999999996	-3.810574405028648	-0.5970525586228412	15.78725933137558	0	0.9399999999999999	0	33.11380247891518	-9.777946400687201	-9.210624099302967	37.06875820227696	0.6469718802553871	0	0	0	33.11380247891518	-9.777946400687201	-9.210624099302967	37.06875820227696	0.6469718802553871	0	0	0	-1.850849999196398	-2.007423600181507	14.44995110643241	54.04534686136044	-39.67323573403263	-7.762419126266998	78.90557760825348	89.21839235890641	0	0	35.04436250385681	0.8588135425485813	-7.372168002764329	35.47969114572813	156.1360418302372	0	0
22.8399999999996	-3.829493434146358	-0.5776117147940181	15.82876951547663	0	0.9399999999999999	0	33.12324107743301	-9.778545942724902	-9.211992536497965	37.07882243475942	0.6471475342488922	0	0	0	33.12324107743301	-9.778545942724902	-9.211992536497965	37.07882243475942	0.6471475342488922	0	0	0	-1.865105565424153	-1.982805391103995	14.45464421337614	53.77551720729126	-39.3327928874154	-8.073469214602994	78.37098223203833	90.14602162661114	0	0	35.00917525533457	0.8971348060913076	-7.325395896642321	35.55851332803611	156.0425420276187	0	0
22.8599999999996	-3.828192209109386	-0.574412084548185	15.82830258138878	0	0.9399999999999999	0	33.12793608072175	-9.778841011224081	-9.212668688928234	37.08387135208318	0.6472356544798528	0	0	0	33.12793608072175	-9.778841011224081	-9.212668688928234	37.08387135208318	0.6472356544798528	0	0	0	-1.863614742603569	-1.9792476816483	14.44788384511571	53.62160639986816	-39.16620779726239	-8.184731719719812	78.03858450046314	90.49040890395381	0	0	34.98138690308436	0.9026533126152081	-7.344916021670124	35.57737976382437	156.0518068439028	0	0
22.8799999999996	-3.837734285666859	-0.5780209800632085	15.90239490647676	0	0.9399999999999999	0	33.13483505044067	-9.779279665946543	-9.213669940645811	37.09120771008553	0.6473636980820989	0	0	0	33.13483505044067	-9.779279665946543	-9.213669940645811	37.09120771008553	0.6473636980820989	0	0	0	-1.87442476428611	-1.979870526502807	14.45985234610537	53.52516379483487	-39.02754237000154	-8.299180547867786	77.85227325266608	90.82815725746644	0	0	34.96309728929519	0.9518493079438163	-7.336241755600089	35.63810369413466	156.0751744878594	0	0
22.8999999999996	-3.806674898941233	-0.6068477927603004	15.98521928964339	0	0.9399999999999999	0	33.13885765269969	-9.779534243008404	-9.214252088356357	37.09549940517346	0.647438602291875	0	0	0	33.13885765269969	-9.779534243008404	-9.214252088356357	37.09549940517346	0.647438602291875	0	0	0	-1.853287254294097	-2.014365727581251	14.41927968748029	53.37395210706691	-38.81180958507519	-8.565577901049688	77.58609484094757	90.97632400223505	0	0	34.91729494089041	0.9278584034157158	-7.678195783139902	35.65115799489764	156.3943658201193	0	0
22.9199999999996	-3.791986387105774	-0.617378156425095	16.07035248518541	0	0.9399999999999999	0	33.14680541929755	-9.780035812144675	-9.21540041318263	37.10399194216999	0.6475868250243118	0	0	0	33.14680541929755	-9.780035812144675	-9.21540041318263	37.10399194216999	0.6475868250243118	0	0	0	-1.843133013958809	-2.026995057804349	14.39517689389137	53.2165730661906	-38.67969729303771	-8.847954590718905	77.23805133219415	91.41907381063191	0	0	34.91659820847734	0.923112306571609	-7.766761702041961	35.67744839742566	156.3276904274512	0	0
22.9399999999996	-3.768831058535685	-0.6121736072830513	16.11666134015914	0	0.9399999999999999	0	33.15255338381961	-9.780397139067809	-9.21622895196556	37.11014983972015	0.6476943006115626	0	0	0	33.15255338381961	-9.780397139067809	-9.21622895196556	37.11014983972015	0.6476943006115626	0	0	0	-1.819966554827757	-2.028139694111723	14.4043216739981	53.06258701076032	-38.64527160774659	-9.139234317711855	77.16342209070397	91.64417251348456	0	0	34.85706214945568	0.9216598769878303	-7.813564987835624	35.66321715322606	156.3891295976525	0	0
